<?xml version="1.0" standalone="no"?>
<!DOCTYPE svg PUBLIC "-//W3C//DTD SVG 20010904//EN"
 "http://www.w3.org/TR/2001/REC-SVG-20010904/DTD/svg10.dtd">
<svg version="1.0" xmlns="http://www.w3.org/2000/svg"
 width="1024.000000pt" height="1024.000000pt" viewBox="0 0 1024.000000 1024.000000"
 preserveAspectRatio="xMidYMid meet">

<g transform="translate(0.000000,1024.000000) scale(0.100000,-0.100000)"
fill="#000000" stroke="none">
<path d="M5070 7788 c-100 -28 -157 -127 -130 -224 15 -51 68 -109 118 -125
l35 -11 -4 -718 c-4 -744 -3 -759 35 -744 32 12 34 51 29 755 l-6 704 50 22
c114 51 146 189 66 284 -45 53 -124 76 -193 57z"/>
<path d="M3765 7023 c-96 -51 -131 -153 -84 -250 41 -86 158 -122 245 -76 l39
20 235 -233 c129 -128 285 -284 345 -347 121 -125 186 -177 222 -177 53 0 12
64 -129 204 -61 59 -125 116 -142 126 -17 11 -135 119 -262 242 l-231 223 15
29 c23 46 12 136 -22 180 -53 70 -160 97 -231 59z"/>
<path d="M6315 7024 c-39 -20 -74 -53 -91 -86 -17 -33 -18 -113 -3 -157 11
-30 9 -35 -19 -61 -17 -15 -123 -118 -237 -229 -113 -110 -211 -201 -218 -201
-15 0 -270 -256 -286 -288 -26 -50 17 -56 80 -10 24 17 199 189 389 381 l346
349 37 -22 c53 -32 123 -30 181 4 120 70 110 253 -16 315 -52 25 -121 27 -163
5z"/>
<path d="M6952 5703 c-18 -7 -42 -57 -42 -87 0 -13 12 -38 26 -55 54 -65 154
-26 154 59 0 55 -34 90 -87 89 -21 0 -44 -3 -51 -6z"/>
<path d="M2703 5679 c-158 -50 -238 -225 -167 -367 44 -89 116 -132 296 -178
122 -30 190 -63 206 -99 32 -69 -1 -143 -76 -172 -97 -37 -227 -13 -337 62
-36 25 -67 45 -69 45 -2 0 -22 -24 -45 -54 l-41 -55 37 -30 c172 -142 467
-161 600 -38 62 57 85 107 91 194 10 155 -70 231 -307 294 -117 31 -179 59
-207 92 -22 26 -25 38 -21 74 9 81 65 117 177 116 87 0 173 -29 224 -74 l33
-28 42 60 42 60 -23 19 c-36 31 -137 77 -196 89 -80 17 -188 13 -259 -10z"/>
<path d="M4167 5683 c-4 -3 -7 -219 -7 -480 l0 -473 70 0 70 0 0 382 c0 210 4
378 8 373 5 -6 83 -178 173 -382 l164 -373 55 0 56 0 71 163 c39 89 113 257
164 374 50 117 96 210 100 207 5 -3 6 -171 2 -375 l-6 -369 76 0 77 0 0 475 0
475 -67 0 c-38 0 -85 3 -105 6 -31 5 -39 3 -44 -12 -8 -22 -218 -507 -277
-642 -22 -50 -44 -89 -48 -85 -6 6 -267 589 -318 709 -6 14 -22 23 -48 27 -50
9 -158 9 -166 0z"/>
<path d="M3562 5430 c-105 -22 -187 -93 -239 -206 -23 -50 -27 -72 -27 -150
-1 -85 2 -96 37 -168 45 -90 105 -142 204 -175 183 -61 388 32 453 208 32 83
26 224 -12 302 -58 116 -167 187 -300 194 -40 2 -92 0 -116 -5z m199 -143
c120 -63 147 -264 52 -378 -61 -72 -175 -91 -262 -44 -165 90 -152 365 20 434
47 19 143 13 190 -12z"/>
<path d="M5580 5425 c-51 -15 -110 -45 -153 -79 -17 -13 -16 -16 14 -60 34
-47 43 -54 54 -36 13 21 110 62 160 67 107 11 175 -38 183 -132 3 -34 1 -55
-6 -55 -6 0 -39 7 -74 16 -131 34 -283 -7 -341 -91 -59 -86 -46 -201 33 -276
55 -54 120 -75 205 -66 54 5 141 43 164 71 21 25 31 19 31 -19 l0 -35 65 0 65
0 0 233 c0 256 -8 309 -55 377 -57 83 -214 121 -345 85z m215 -387 l45 -12 0
-54 c0 -68 -10 -86 -68 -123 -132 -84 -301 17 -237 141 8 16 28 36 43 44 33
19 154 21 217 4z"/>
<path d="M6317 5423 c-69 -24 -140 -91 -179 -171 -31 -63 -33 -72 -33 -177 0
-101 2 -115 29 -169 56 -114 145 -176 262 -184 62 -4 79 -1 125 21 30 13 69
38 86 55 18 17 35 26 39 21 7 -12 -4 -113 -17 -155 -5 -17 -26 -47 -45 -67
-68 -67 -186 -73 -305 -14 -35 17 -67 31 -71 31 -4 1 -21 -18 -38 -42 -37 -52
-34 -58 51 -101 78 -39 156 -54 249 -49 170 10 272 102 300 269 5 35 10 214
10 397 l0 332 -65 0 -65 0 0 -45 c0 -52 -7 -55 -41 -19 -69 74 -191 102 -292
67z m241 -141 c83 -60 117 -205 72 -310 -72 -168 -284 -173 -365 -8 -25 50
-27 65 -23 131 6 91 42 157 103 193 55 31 164 28 213 -6z"/>
<path d="M7431 5419 c-86 -28 -177 -116 -209 -202 -73 -194 -1 -388 176 -474
50 -24 69 -27 152 -28 82 0 103 4 150 26 30 15 72 42 93 60 l38 34 -44 43 -45
44 -53 -38 c-46 -34 -61 -39 -119 -42 -52 -3 -75 0 -106 16 -83 43 -127 116
-128 212 -1 143 87 240 216 240 56 0 100 -16 144 -53 18 -15 36 -27 40 -26 5
0 27 21 48 45 l39 45 -27 28 c-75 78 -242 110 -365 70z"/>
<path d="M6930 5075 l0 -345 70 0 70 0 -1 345 -2 345 -68 0 -69 0 0 -345z"/>
<path d="M5099 4334 c-12 -14 -13 -134 -10 -764 l4 -748 -29 -6 c-35 -8 -88
-55 -111 -99 -37 -70 -11 -174 55 -225 28 -21 48 -27 101 -30 59 -3 71 0 112
26 52 34 89 97 89 153 -1 75 -67 163 -133 176 l-30 6 5 738 c6 741 5 775 -28
786 -6 2 -17 -4 -25 -13z"/>
<path d="M4662 4246 c-48 -40 -126 -115 -172 -167 -96 -106 -195 -207 -391
-397 l-135 -132 -39 20 c-116 59 -252 -20 -263 -154 -9 -112 73 -196 190 -196
64 0 105 23 148 81 25 34 30 52 30 96 0 30 -7 67 -15 82 l-14 29 122 119 c236
231 333 321 409 382 89 72 216 205 244 256 17 31 17 37 4 45 -8 5 -18 10 -22
10 -4 0 -47 -33 -96 -74z"/>
<path d="M5459 4309 c-11 -7 -10 -15 6 -46 24 -46 209 -233 285 -290 30 -22
153 -136 272 -252 216 -211 218 -213 204 -239 -35 -71 -26 -138 27 -199 88
-100 248 -79 307 42 75 156 -91 323 -245 245 l-39 -20 -151 147 c-204 201
-297 296 -380 388 -80 90 -226 220 -254 228 -10 2 -25 1 -32 -4z"/>
</g>
</svg>
